Coordinates
version=1
nRows=27
nColumns=12
inDegrees=yes

Units are S.I. units (second, meters, Newtons, ...)
Angles are in degrees

endheader
time	SC_y	SC_z	SC_x	AC_y	AC_z	AC_x	GH_y	GH_z	GH_yy	EL_x	PS_y
       0.0              -36.32          33.14          72.05          33.72         -8.381         -2.122          108.2          84.52         -90.44          83.04          102.2
  0.001902              -36.32          33.14          72.05          33.72          -8.38          -2.12          108.2          84.52          -90.4          83.04          102.2
  0.003805              -36.32          33.14          72.05          33.72          -8.38         -2.119          108.2          84.52         -90.36          83.04          102.2
  0.005707              -36.32          33.14          72.05          33.73         -8.379         -2.117          108.2          84.51         -90.32          83.04          102.2
  0.007609              -36.32          33.14          72.05          33.73         -8.379         -2.116          108.2          84.51         -90.28          83.04          102.2
  0.009512              -36.32          33.13          72.05          33.73         -8.378         -2.114          108.3           84.5         -90.23          83.05          102.2
   0.01141              -36.32          33.13          72.05          33.73         -8.377         -2.112          108.3           84.5         -90.18          83.05          102.2
   0.01332              -36.32          33.13          72.04          33.73         -8.376          -2.11          108.3          84.49         -90.12          83.05          102.2
   0.01522              -36.32          33.13          72.04          33.73         -8.376         -2.108          108.3          84.48         -90.06          83.05          102.2
   0.01712              -36.32          33.13          72.04          33.73         -8.375         -2.106          108.3          84.48          -90.0          83.05          102.2
   0.01902              -36.32          33.13          72.04          33.74         -8.374         -2.104          108.3          84.47         -89.93          83.06          102.2
   0.02093              -36.32          33.13          72.04          33.74         -8.373         -2.101          108.3          84.46         -89.86          83.06          102.2
   0.02283              -36.32          33.12          72.04          33.74         -8.372         -2.098          108.3          84.45         -89.78          83.06          102.2
   0.02473              -36.32          33.12          72.03          33.74         -8.371         -2.095          108.3          84.45          -89.7          83.07          102.2
   0.02663              -36.32          33.12          72.03          33.75         -8.369         -2.092          108.3          84.44         -89.61          83.07          102.2
   0.02854              -36.32          33.12          72.03          33.75         -8.368         -2.089          108.4          84.42         -89.51          83.07          102.2
   0.03044              -36.32          33.12          72.03          33.75         -8.367         -2.085          108.4          84.41          -89.4          83.08          102.1
   0.03234              -36.32          33.11          72.02          33.76         -8.365         -2.081          108.4           84.4         -89.28          83.08          102.1
   0.03424              -36.32          33.11          72.02          33.76         -8.363         -2.076          108.4          84.39         -89.15          83.09          102.1
   0.03614              -36.32          33.11          72.02          33.77         -8.361         -2.071          108.4          84.37         -89.01          83.09          102.1
   0.03805              -36.32           33.1          72.01          33.77         -8.359         -2.066          108.4          84.36         -88.86           83.1          102.1
   0.03995              -36.32           33.1          72.01          33.78         -8.357          -2.06          108.5          84.34         -88.69           83.1          102.1
   0.04185              -36.32           33.1           72.0          33.78         -8.354         -2.053          108.5          84.32          -88.5          83.11          102.1
   0.04375              -36.32          33.09           72.0          33.79         -8.351         -2.046          108.5          84.29         -88.29          83.12          102.1
   0.04566              -36.32          33.09          71.99          33.79         -8.348         -2.038          108.6          84.27         -88.06          83.13          102.1
   0.04756              -36.32          33.08          71.99           33.8         -8.345         -2.028          108.6          84.24          -87.8          83.14          102.1
   0.04946              -36.32          33.07          71.98          33.81         -8.341         -2.018          108.6          84.21         -87.51          83.15          102.1
